<svg width="54" height="54" viewBox="0 0 54 54" fill="none" xmlns="http://www.w3.org/2000/svg">
<path fill-rule="evenodd" clip-rule="evenodd" d="M27 53C41.3594 53 53 41.3594 53 27C53 12.6406 41.3594 1 27 1C12.6406 1 1 12.6406 1 27C1 41.3594 12.6406 53 27 53ZM27 54C41.9117 54 54 41.9117 54 27C54 12.0883 41.9117 0 27 0C12.0883 0 0 12.0883 0 27C0 41.9117 12.0883 54 27 54Z" fill="#303030"/>
<path fill-rule="evenodd" clip-rule="evenodd" d="M32.1716 23.4644L35.3536 26.6464C35.5488 26.8417 35.5488 27.1583 35.3536 27.3535L32.1716 30.5355C31.9763 30.7308 31.6597 30.7308 31.4645 30.5355C31.2692 30.3402 31.2692 30.0237 31.4645 29.8284L33.7929 27.5L19 27.5L19 26.5L33.7929 26.5L31.4645 24.1715C31.2692 23.9763 31.2692 23.6597 31.4645 23.4644C31.6597 23.2692 31.9763 23.2692 32.1716 23.4644Z" fill="black"/>
</svg>
