<svg width="54" height="54" viewBox="0 0 54 54" fill="none" xmlns="http://www.w3.org/2000/svg">
<path fill-rule="evenodd" clip-rule="evenodd" d="M27 53C12.6406 53 1 41.3594 1 27C1 12.6406 12.6406 1 27 1C41.3594 1 53 12.6406 53 27C53 41.3594 41.3594 53 27 53ZM27 54C12.0883 54 0 41.9117 0 27C0 12.0883 12.0883 0 27 0C41.9117 0 54 12.0883 54 27C54 41.9117 41.9117 54 27 54Z" fill="#303030"/>
<path fill-rule="evenodd" clip-rule="evenodd" d="M21.8284 23.4644L18.6464 26.6464C18.4512 26.8417 18.4512 27.1583 18.6464 27.3535L21.8284 30.5355C22.0237 30.7308 22.3403 30.7308 22.5355 30.5355C22.7308 30.3402 22.7308 30.0237 22.5355 29.8284L20.2071 27.5L35 27.5L35 26.5L20.2071 26.5L22.5355 24.1715C22.7308 23.9763 22.7308 23.6597 22.5355 23.4644C22.3403 23.2692 22.0237 23.2692 21.8284 23.4644Z" fill="black"/>
</svg>
